# xmcd
#
# Track frame offsets: 
#        150
#        13369
#        23033
#        38002
#        54713
#        80961
#        94460
#        110390
#        127540
#        141500
#        157167
#        172311
#        187289
#        202182
#        220600
#        236532
#        245887
#        262401
#        277657
#        289660
#        304107
#        318587
#
# Disc length: 4492 seconds
#
# Revision: 0
# Processed by: cddbd v1.5.2PL0 Copyright (c) Steve Scherf et al.
# Submitted via: ExactAudioCopy v0.95b4
#
DISCID=5d118a16
DTITLE=Various Artist - Xxxl 17 R&B
DYEAR=2007
DGENRE=R&B
TTITLE0=Лигалайз|Стресс
TTITLE1=Красное Дерево/Русские Идут
TTITLE2=White Hot Ice/Растаман
TTITLE3=Баста/Так Плачет Весна
TTITLE4=NTL/Шаг В Сторону
TTITLE5=Многоточие/Счастье (при уч. White Hot Ice И Красное Дерево)
TTITLE6=Cottonclub/Ты Хорошая
TTITLE7=Звонкий/Я Верю В Любовь
TTITLE8=Den&One/Дом 2. Приступ Ревности
TTITLE9=Картель/На Фарсе
TTITLE10=Nesty Nuts/Небо Над Нами
TTITLE11=Сью/Бойфренд
TTITLE12=Чип/Ты Знаешь
TTITLE13=DinoMC47/Легенда
TTITLE14=К.У.К.Л.А./Метросексуал
TTITLE15=Big Black Boots/Хорошие Девочки (Нифиgасебе!)
TTITLE16=Nervniy/Медленно (feat. Lil-Den)
TTITLE17=Гандурас/Педали
TTITLE18=Vaлери/Начиная Новый День
TTITLE19=One Two/Ночь
TTITLE20=Sexy Liva/Moscow City
TTITLE21=Tony Nice/Tony Nice #1
EXTD=
EXTT0=
EXTT1=
EXTT2=
EXTT3=
EXTT4=
EXTT5=
EXTT6=
EXTT7=
EXTT8=
EXTT9=
EXTT10=
EXTT11=
EXTT12=
EXTT13=
EXTT14=
EXTT15=
EXTT16=
EXTT17=
EXTT18=
EXTT19=
EXTT20=
EXTT21=
PLAYORDER=
